<svg width="26" height="26" viewBox="0 0 26 26" fill="none" xmlns="http://www.w3.org/2000/svg">
<path d="M17.0192 13.7692C18.0813 12.9335 18.8565 11.7877 19.237 10.4909C19.6175 9.1942 19.5844 7.81111 19.1423 6.53408C18.7001 5.25705 17.8709 4.14958 16.7701 3.36575C15.6692 2.58192 14.3514 2.16071 13 2.16071C11.6486 2.16071 10.3308 2.58192 9.22992 3.36575C8.12905 4.14958 7.29987 5.25705 6.85773 6.53408C6.41558 7.81111 6.38247 9.1942 6.76299 10.4909C7.14351 11.7877 7.91874 12.9335 8.98083 13.7692C7.16091 14.4983 5.57297 15.7076 4.3863 17.2682C3.19962 18.8288 2.45869 20.6822 2.2425 22.6308C2.22685 22.7731 2.23937 22.917 2.27936 23.0545C2.31934 23.1919 2.386 23.3201 2.47553 23.4318C2.65635 23.6573 2.91935 23.8017 3.20666 23.8333C3.49398 23.8649 3.78209 23.7811 4.0076 23.6003C4.23311 23.4195 4.37756 23.1565 4.40916 22.8692C4.64705 20.7515 5.65682 18.7956 7.24557 17.3754C8.83431 15.9551 10.8906 15.1699 13.0217 15.1699C15.1527 15.1699 17.209 15.9551 18.7978 17.3754C20.3865 18.7956 21.3963 20.7515 21.6342 22.8692C21.6636 23.1354 21.7906 23.3812 21.9907 23.5593C22.1908 23.7373 22.4497 23.835 22.7175 23.8333H22.8367C23.1206 23.8007 23.3802 23.6571 23.5588 23.4338C23.7373 23.2106 23.8205 22.9259 23.79 22.6417C23.5728 20.6875 22.8279 18.8294 21.6351 17.2664C20.4423 15.7034 18.8467 14.4944 17.0192 13.7692V13.7692ZM13 13C12.1429 13 11.3051 12.7458 10.5925 12.2697C9.87991 11.7935 9.3245 11.1168 8.99652 10.325C8.66854 9.53314 8.58272 8.66185 8.74993 7.82127C8.91713 6.98068 9.32984 6.20856 9.93587 5.60253C10.5419 4.9965 11.314 4.58379 12.1546 4.41659C12.9952 4.24939 13.8665 4.3352 14.6583 4.66318C15.4501 4.99116 16.1269 5.54658 16.603 6.25919C17.0792 6.9718 17.3333 7.80961 17.3333 8.66666C17.3333 9.81593 16.8768 10.9181 16.0641 11.7308C15.2515 12.5434 14.1493 13 13 13Z" fill="black"/>
</svg>
