<svg width="50" height="50" viewBox="0 0 50 50" fill="none" xmlns="http://www.w3.org/2000/svg">
<path d="M35.4167 22.9167H19.6042L26.4792 16.0625C26.8715 15.6702 27.0918 15.1381 27.0918 14.5833C27.0918 14.0285 26.8715 13.4965 26.4792 13.1042C26.0869 12.7119 25.5548 12.4915 25 12.4915C24.4452 12.4915 23.9131 12.7119 23.5208 13.1042L13.1042 23.5208C12.9145 23.719 12.7658 23.9526 12.6667 24.2083C12.4583 24.7156 12.4583 25.2845 12.6667 25.7917C12.7658 26.0474 12.9145 26.281 13.1042 26.4792L23.5208 36.8958C23.7145 37.0911 23.9449 37.2461 24.1988 37.3519C24.4527 37.4576 24.725 37.5121 25 37.5121C25.275 37.5121 25.5473 37.4576 25.8012 37.3519C26.0551 37.2461 26.2855 37.0911 26.4792 36.8958C26.6744 36.7022 26.8294 36.4718 26.9352 36.2179C27.0409 35.964 27.0954 35.6917 27.0954 35.4167C27.0954 35.1416 27.0409 34.8693 26.9352 34.6155C26.8294 34.3616 26.6744 34.1312 26.4792 33.9375L19.6042 27.0833H35.4167C35.9692 27.0833 36.4991 26.8638 36.8898 26.4731C37.2805 26.0824 37.5 25.5525 37.5 25C37.5 24.4475 37.2805 23.9176 36.8898 23.5269C36.4991 23.1362 35.9692 22.9167 35.4167 22.9167Z" fill="white"/>
</svg>
