<svg width="25" height="25" viewBox="0 0 25 25" fill="none" xmlns="http://www.w3.org/2000/svg">
<path d="M23.8566 6.77439C23.5839 5.74792 22.7807 4.9395 21.7609 4.66515C19.9124 4.16663 12.5 4.16663 12.5 4.16663C12.5 4.16663 5.08767 4.16663 3.2391 4.66515C2.21927 4.93954 1.41606 5.74792 1.14344 6.77439C0.648132 8.63494 0.648132 12.5168 0.648132 12.5168C0.648132 12.5168 0.648132 16.3987 1.14344 18.2592C1.41606 19.2857 2.21927 20.0604 3.2391 20.3348C5.08767 20.8333 12.5 20.8333 12.5 20.8333C12.5 20.8333 19.9123 20.8333 21.7609 20.3348C22.7807 20.0604 23.5839 19.2857 23.8566 18.2592C24.3519 16.3987 24.3519 12.5168 24.3519 12.5168C24.3519 12.5168 24.3519 8.63494 23.8566 6.77439ZM10.0757 16.0412V8.99236L16.271 12.5169L10.0757 16.0412Z" fill="black"/>
</svg>
